<svg xmlns="http://www.w3.org/2000/svg" width="1440" height="900" viewBox="0 0 1440 900">
  <rect width="1440" height="900" fill="#050810"/>
  <rect x="16" y="58" width="255" height="78" rx="18" fill="#111a28" stroke="#405163"/>
  <text x="32" y="90" fill="#edf5fa" font-family="Arial" font-size="24">Day 001</text>
  <text x="32" y="116" fill="#9fb2bf" font-family="Arial" font-size="14">Saturday · Week 1 · Daylight</text>
  <rect x="16" y="148" width="350" height="62" rx="18" fill="#111a28" stroke="#405163"/>
  <text x="32" y="187" fill="#edf5fa" font-family="Arial" font-size="26">06:00  ❚❚  1×  4×  16×  64×  128×</text>
  <g fill="#d9e1e6" stroke="#7ed9ed"><rect x="390" y="220" width="95" height="95"/><rect x="510" y="220" width="95" height="95"/><rect x="630" y="220" width="95" height="95"/><rect x="750" y="220" width="95" height="95"/></g>
  <g fill="#e7ca70"><circle cx="435" cy="205" r="9"/><circle cx="455" cy="205" r="9"/><circle cx="435" cy="185" r="9"/><circle cx="455" cy="185" r="9"/></g>
  <path d="M455 185V120H1035" fill="none" stroke="#8be7f7" stroke-width="5" stroke-linejoin="round"/>
  <rect x="1035" y="70" width="365" height="420" rx="18" fill="#111a28" stroke="#405163"/>
  <text x="1060" y="110" fill="#7ed9ed" font-family="Arial" font-size="14">✥ SELECTED AGENT</text>
  <text x="1060" y="145" fill="#edf5fa" font-family="Arial" font-size="28">Agent details / Meso</text>
  <rect x="1080" y="210" width="110" height="45" rx="22" fill="#fff4ad"/><text x="1103" y="238" fill="#07111b" font-family="Arial" font-size="15">Network</text>
  <rect x="515" y="836" width="410" height="48" rx="24" fill="#07101b" stroke="#405163"/>
  <text x="575" y="867" fill="#edf5fa" font-family="Arial" font-size="18">MICRO       MESO       MACRO</text>
</svg>
