<svg xmlns="http://www.w3.org/2000/svg" width="390" height="844" viewBox="0 0 390 844">
  <rect width="390" height="844" fill="#050810"/>
  <rect x="12" y="54" width="366" height="62" rx="16" fill="#111a28" stroke="#405163"/>
  <text x="26" y="80" fill="#edf5fa" font-family="Arial" font-size="20">Day 001</text>
  <text x="26" y="102" fill="#9fb2bf" font-family="Arial" font-size="12">Saturday · Week 1 · Daylight</text>
  <rect x="12" y="126" width="366" height="54" rx="16" fill="#111a28" stroke="#405163"/>
  <text x="24" y="159" fill="#edf5fa" font-family="Arial" font-size="17">06:00  ❚❚  1×  16×  64×  128×</text>
  <g fill="#d9e1e6" stroke="#7ed9ed"><rect x="70" y="245" width="72" height="72"/><rect x="165" y="245" width="72" height="72"/><rect x="260" y="245" width="72" height="72"/></g>
  <g fill="#e7ca70"><circle cx="100" cy="232" r="7"/><circle cx="116" cy="232" r="7"/><circle cx="100" cy="216" r="7"/><circle cx="116" cy="216" r="7"/></g>
  <rect x="10" y="500" width="370" height="280" rx="24" fill="#111a28" stroke="#405163"/>
  <rect x="155" y="511" width="80" height="5" rx="3" fill="#8396a4"/>
  <text x="28" y="550" fill="#7ed9ed" font-family="Arial" font-size="12">✥ SELECTED AGENT</text>
  <text x="28" y="582" fill="#edf5fa" font-family="Arial" font-size="23">Snapping bottom sheet</text>
  <rect x="52" y="790" width="286" height="44" rx="22" fill="#07101b" stroke="#405163"/>
  <text x="82" y="818" fill="#edf5fa" font-family="Arial" font-size="15">MICRO     MESO     MACRO</text>
</svg>
