<svg xmlns="http://www.w3.org/2000/svg" width="2400" height="3540" viewBox="0 0 2400 3540">
  <style>
    text { font-family: Inter, Arial, sans-serif; fill: #eaf3f8; }
    .frame { fill: #050810; stroke: #405163; stroke-width: 3; }
    .panel { fill: #111a28; stroke: #405163; stroke-width: 2; }
    .muted { fill: #8fa5b4; }
    .accent { fill: #7ed9ed; }
    .road { fill: #273748; stroke: #0d1722; stroke-width: 4; }
    .lot { fill: #101a27; stroke: #294052; stroke-width: 2; }
    .building { fill: #d9e1e6; stroke: #9aabb5; stroke-width: 2; }
    .agent { fill: #e7ca70; }
    .label { font-size: 22px; letter-spacing: 5px; fill: #7ed9ed; }
    .title { font-size: 48px; }
    .body { font-size: 22px; fill: #aebfca; }
    .small { font-size: 17px; fill: #9badb9; }
  </style>
  <rect width="2400" height="3540" fill="#02050a"/>

  <!-- Hero -->
  <g id="Hero" transform="translate(80 80)">
    <rect class="frame" width="1080" height="760" rx="28"/>
    <text class="label" x="42" y="48">01 / HERO</text>
    <g opacity=".45" transform="translate(260 115)">
      <path d="M0 210 280 50 560 210 280 370Z" fill="#101a27" stroke="#365062" stroke-width="3"/>
      <path d="M70 170 350 330M140 130 420 290M210 90 490 250M70 250 350 90M140 290 420 130M210 330 490 170" stroke="#365062" stroke-width="2"/>
    </g>
    <text class="label" x="540" y="260" text-anchor="middle">ENTER THE MODEL</text>
    <text class="title" x="540" y="335" text-anchor="middle">SimARC Bridge</text>
    <text class="body" x="540" y="380" text-anchor="middle">A playable interface for translating models into policy conversations.</text>
    <text class="small" x="540" y="420" text-anchor="middle">&#9744; Skip generation animation</text>
    <rect class="accent" x="390" y="435" width="300" height="62" rx="14"/>
    <text x="540" y="474" text-anchor="middle" font-size="22" fill="#06111b">Initialize model</text>
    <text class="small" x="540" y="535" text-anchor="middle">Advanced options</text>
  </g>

  <!-- Generation -->
  <g id="World_Generation" transform="translate(1240 80)">
    <rect class="frame" width="1080" height="760" rx="28"/>
    <text class="label" x="42" y="48">02 / WORLD GENERATION</text>
    <g transform="translate(180 95)">
      <path d="M0 250 360 40 720 250 360 460Z" fill="#101a27" stroke="#365062" stroke-width="3"/>
      <g class="road"><path d="M70 210 430 420 500 380 140 170Z"/><path d="M220 90 580 300 650 260 290 50Z"/></g>
      <g class="building"><rect x="280" y="185" width="75" height="120"/><rect x="430" y="155" width="75" height="150"/><rect x="520" y="245" width="75" height="100"/></g>
    </g>
    <rect class="panel" x="210" y="575" width="660" height="130" rx="20"/>
    <text class="label" x="540" y="615" text-anchor="middle">WORLD INITIALIZATION</text>
    <text x="540" y="654" text-anchor="middle" font-size="28">Paving roads</text>
    <rect x="280" y="675" width="520" height="10" rx="5" fill="#ffffff18"/>
    <rect x="280" y="675" width="205" height="10" rx="5" class="accent"/>
  </g>

  <!-- Population -->
  <g id="Population" transform="translate(80 920)">
    <rect class="frame" width="1080" height="760" rx="28"/>
    <text class="label" x="42" y="48">03 / POPULATION</text>
    <g transform="translate(185 80)">
      <path d="M0 250 360 40 720 250 360 460Z" fill="#101a27" stroke="#365062" stroke-width="3"/>
      <g class="building"><rect x="190" y="205" width="80" height="120"/><rect x="350" y="135" width="80" height="160"/><rect x="510" y="220" width="80" height="110"/></g>
      <circle class="agent" cx="300" cy="180" r="13"/><circle fill="#e47768" cx="440" cy="320" r="13"/><circle fill="#a9d77b" cx="520" cy="175" r="13"/><circle fill="#b879c9" cx="210" cy="345" r="13"/>
    </g>
    <rect class="panel" x="230" y="565" width="620" height="145" rx="20"/>
    <text class="label" x="540" y="608" text-anchor="middle">POPULATION INITIALIZATION</text>
    <text x="540" y="650" text-anchor="middle" font-size="30">Generate the population</text>
    <text class="small" x="540" y="678" text-anchor="middle">&#9745; Tutorial after generation</text>
    <rect class="accent" x="390" y="695" width="300" height="48" rx="12"/>
  </g>

  <!-- Micro -->
  <g id="Micro" transform="translate(1240 920)">
    <rect class="frame" width="1080" height="760" rx="28"/>
    <text class="label" x="42" y="48">04 / MICRO &#183; BILLBOARD-CIRCLE TOWERS</text>
    <g transform="translate(100 90)">
      <path d="M0 310 360 100 720 310 360 520Z" fill="#101a27" stroke="#365062" stroke-width="3"/>
      <g class="building"><rect x="220" y="230" width="110" height="180"/><rect x="480" y="210" width="110" height="160"/></g>
      <circle fill="#e47768" cx="405" cy="290" r="24"/><circle fill="none" stroke="#fff" stroke-width="5" cx="405" cy="290" r="37"/>
      <circle fill="#e47768" cx="260" cy="215" r="9"/><circle fill="#a9d77b" cx="282" cy="215" r="9"/><circle fill="#e2ca70" cx="260" cy="193" r="9"/><circle fill="#b879c9" cx="282" cy="193" r="9"/>
    </g>
    <rect class="panel" x="690" y="215" width="330" height="350" rx="18"/>
    <text class="label" x="720" y="255">RESIDENT 047</text>
    <text x="720" y="295" font-size="28">Maya R.</text>
    <rect x="720" y="325" width="270" height="55" rx="10" fill="#ffffff0c"/><rect x="720" y="395" width="270" height="55" rx="10" fill="#ffffff0c"/><rect x="720" y="465" width="270" height="55" rx="10" fill="#ffffff0c"/>
    <g class="panel" transform="translate(935 590)"><rect width="105" height="130" rx="18"/><text class="small" x="52" y="25" text-anchor="middle">VIEWS</text><text x="52" y="60" text-anchor="middle">◇</text><text x="52" y="94" text-anchor="middle">▦</text></g>
  </g>

  <!-- Meso -->
  <g id="Meso" transform="translate(80 1760)">
    <rect class="frame" width="1080" height="760" rx="28"/>
    <text class="label" x="42" y="48">05 / MESO &#183; NETWORK / SOCIAL / LOCATIONS / USERS</text>
    <g transform="translate(180 100)">
      <path d="M0 250 360 40 720 250 360 460Z" fill="#101a27" stroke="#365062" stroke-width="3"/>
      <path d="M170 270 350 160 540 280M350 160 420 365M170 270 420 365M540 280 420 365" stroke="#7ed9ed" stroke-width="4" opacity=".65"/>
      <circle class="agent" cx="170" cy="270" r="18"/><circle fill="#e47768" cx="350" cy="160" r="18"/><circle fill="#a9d77b" cx="540" cy="280" r="18"/><circle fill="#b879c9" cx="420" cy="365" r="18"/>
      <circle fill="#fff4ad" cx="350" cy="100" r="15"/><circle fill="#67e8f9" cx="310" cy="62" r="11"/><circle fill="#ffe36e" cx="390" cy="62" r="11"/>
    </g>
    <rect class="panel" x="80" y="600" width="500" height="105" rx="18"/>
    <text class="label" x="115" y="642">MESO LAYER</text>
    <text x="115" y="680" font-size="28">Networks and shared places</text>
  </g>

  <!-- Macro -->
  <g id="Macro" transform="translate(1240 1760)">
    <rect class="frame" width="1080" height="760" rx="28"/>
    <text class="label" x="42" y="48">06 / MACRO &#183; POLICY + OUTCOMES + HISTORY</text>
    <rect class="panel" x="25" y="75" width="400" height="650" rx="18"/>
    <text class="label" x="55" y="120">POLICY LAB</text>
    <text x="55" y="165" font-size="32">Apply an intervention</text>
    <g stroke="#7ed9ed" stroke-width="5"><path d="M55 230H365"/><path d="M55 310H365"/><path d="M55 390H365"/><path d="M55 470H365"/></g>
    <rect class="accent" x="55" y="530" width="310" height="55" rx="12"/>
    <text class="small" x="55" y="620">24 hours     7 days     30 days</text>
    <polyline points="55,690 110,660 165,675 220,635 275,650 330,610 365,625" fill="none" stroke="#7ed9ed" stroke-width="4"/>
    <g transform="translate(475 105)">
      <rect x="0" y="0" width="565" height="565" rx="16" fill="#0c1521" stroke="#405163" stroke-width="2"/>
      <g fill="#273748" stroke="#0d1722" stroke-width="3">
        <path d="M35 35H530V85H35Z"/><path d="M35 240H530V290H35Z"/><path d="M35 445H530V495H35Z"/><path d="M35 35H85V530H35Z"/><path d="M240 35H290V530H240Z"/><path d="M445 35H495V530H445Z"/>
      </g>
      <g class="building"><rect x="115" y="115" width="80" height="80"/><rect x="330" y="115" width="80" height="80"/><rect x="115" y="330" width="80" height="80"/><rect x="330" y="330" width="80" height="80"/></g>
    </g>
  </g>

  <!-- Tutorial Demo -->
  <g id="Tutorial_Two_Day_Demo" transform="translate(80 2600)">
    <rect class="frame" width="1080" height="760" rx="28"/>
    <text class="label" x="42" y="48">07 / TUTORIAL &#183; TWO-DAY DEMONSTRATION</text>
    <g transform="translate(120 95)">
      <path d="M0 250 330 55 660 250 330 445Z" fill="#101a27" stroke="#365062" stroke-width="3"/>
      <g class="building"><rect x="180" y="210" width="90" height="120"/><rect x="390" y="165" width="90" height="155"/></g>
      <g class="agent"><circle cx="425" cy="145" r="10"/><circle cx="448" cy="145" r="10"/><circle cx="425" cy="122" r="10"/><circle cx="448" cy="122" r="10"/></g>
    </g>
    <rect class="panel" x="450" y="305" width="565" height="350" rx="20"/>
    <text class="label" x="485" y="350">MODEL TUTORIAL &#183; 15 / 32 &#183; MICRO</text>
    <text x="485" y="400" font-size="34">Two days at 128&#215;</text>
    <text class="body" x="485" y="438">Run two live days, then restore this exact snapshot.</text>
    <rect x="485" y="470" width="490" height="90" rx="14" fill="#f3cc5510" stroke="#f3cc5570"/>
    <text x="510" y="505" fill="#e9d893" font-size="20">Two-day demonstration running</text>
    <text class="small" x="510" y="535">1 day 18 hours remaining. Restoration starts automatically.</text>
    <text class="body" x="510" y="605">Press 128&#215; and watch the restoration.</text>
  </g>

  <!-- Restore and Settings -->
  <g id="Restore_And_Settings" transform="translate(1240 2600)">
    <rect class="frame" width="1080" height="760" rx="28"/>
    <text class="label" x="42" y="48">08 / RESTORE + SETTINGS &#183; BETA.4</text>
    <rect x="20" y="75" width="500" height="650" rx="18" fill="#050810dd" stroke="#405163" stroke-width="2"/>
    <text x="270" y="340" text-anchor="middle" font-size="24" letter-spacing="2">RESTORING YOUR SAVED SNAPSHOT...</text>
    <text x="270" y="475" text-anchor="middle" font-size="120" fill="#f3cc55">3</text>
    <text class="small" x="270" y="525" text-anchor="middle">3 &#8594; 2 &#8594; 1 &#8594; 0, then exact paused snapshot</text>
    <rect class="panel" x="555" y="75" width="490" height="650" rx="18"/>
    <text x="590" y="125" font-size="32">Model settings</text>
    <rect x="590" y="155" width="420" height="100" rx="14" fill="#ffffff08" stroke="#405163"/>
    <text class="body" x="615" y="195">Interface size</text><text x="900" y="195" font-size="20">Default</text>
    <path d="M615 225H980" stroke="#7ed9ed" stroke-width="6"/><circle cx="798" cy="225" r="11" class="accent"/>
    <g fill="#ffffff08" stroke="#405163"><rect x="590" y="285" width="420" height="60" rx="12"/><rect x="590" y="365" width="420" height="60" rx="12"/><rect x="590" y="445" width="420" height="60" rx="12"/><rect x="590" y="525" width="420" height="60" rx="12"/></g>
    <text class="body" x="615" y="323">Start guided tutorial</text><text class="body" x="615" y="403">Restart simulation</text><text class="body" x="615" y="483">Regenerate population</text><text x="615" y="563" fill="#ff9eaa" font-size="22">Reset everything</text>
    <text class="small" x="590" y="635">Bridge v0.3.0-beta.7 &#183; Compact / Default / Large</text>
  </g>
</svg>
